<?xml version="1.0" encoding="UTF-8"?>
<svg width="342px" height="256px" viewBox="0 0 342 256" version="1.1" xmlns="http://www.w3.org/2000/svg" xmlns:xlink="http://www.w3.org/1999/xlink">
    <!-- Generator: Sketch 57.1 (83088) - https://sketch.com -->
    <title>empty board</title>
    <desc>Created with Sketch.</desc>
    <defs>
        <linearGradient x1="0%" y1="46.2298858%" x2="90.2899658%" y2="65.7600873%" id="linearGradient-1">
            <stop stop-color="#00C2E0" offset="0%"></stop>
            <stop stop-color="#99D18F" offset="100%"></stop>
        </linearGradient>
        <rect id="path-2" x="0" y="43" width="272" height="161" rx="4.41593856"></rect>
        <filter x="-22.4%" y="-27.3%" width="144.9%" height="175.8%" filterUnits="objectBoundingBox" id="filter-4">
            <feOffset dx="0" dy="17" in="SourceAlpha" result="shadowOffsetOuter1"></feOffset>
            <feGaussianBlur stdDeviation="17.5" in="shadowOffsetOuter1" result="shadowBlurOuter1"></feGaussianBlur>
            <feColorMatrix values="0 0 0 0 0   0 0 0 0 0   0 0 0 0 0  0 0 0 0.15 0" type="matrix" in="shadowBlurOuter1"></feColorMatrix>
        </filter>
        <rect id="path-5" x="0" y="1.70530257e-13" width="68.2573973" height="16.827376" rx="2.9900108"></rect>
        <rect id="path-7" x="0" y="0.391334326" width="68.2573973" height="30.5240774" rx="2.9900108"></rect>
        <rect id="path-9" x="0" y="0" width="68.2573973" height="47.3514534" rx="2.9900108"></rect>
        <rect id="path-11" x="0" y="-5.68434189e-14" width="68.2573973" height="15.2620387" rx="2.9900108"></rect>
        <rect id="path-13" x="0" y="-5.68434189e-14" width="68.2573973" height="15.2620387" rx="2.9900108"></rect>
        <rect id="path-15" x="0" y="0" width="68.2573973" height="47.3514534" rx="2.9900108"></rect>
    </defs>
    <g id="MVP-Phase-1" stroke="none" stroke-width="1" fill="none" fill-rule="evenodd">
        <g id="empty-board" transform="translate(35.000000, 0.000000)">
            <mask id="mask-3" fill="white">
                <use xlink:href="#path-2"></use>
            </mask>
            <g id="Mask">
                <use fill="black" fill-opacity="1" filter="url(#filter-4)" xlink:href="#path-2"></use>
                <use fill="url(#linearGradient-1)" fill-rule="evenodd" xlink:href="#path-2"></use>
            </g>
            <g id="full" transform="translate(11.000000, 53.000000)">
                <g id="Middle-List" transform="translate(85.350175, 15.211091)">
                    <rect id="List" fill="#E3E3E3" x="0" y="0" width="77.38484" height="73.4107504" rx="2.9900108"></rect>
                    <g id="Card-+-Title" transform="translate(4.762144, 70.440179)"></g>
                    <g id="Card-+-Title" transform="translate(4.762144, 17.610045)">
                        <mask id="mask-6" fill="white">
                            <use xlink:href="#path-5"></use>
                        </mask>
                        <use id="Mask" fill="#FFFFFF" xlink:href="#path-5"></use>
                        <path d="M3.571608,7.36887086 C3.571608,6.54107556 4.24153164,5.87001489 5.05803708,5.87001489 L15.9747656,5.87001489 C16.7956977,5.87001489 17.4611947,6.53509657 17.4611947,7.36887086 L17.4611947,9.45850516 C17.4611947,10.2863005 16.791271,10.9573611 15.9747656,10.9573611 L5.05803708,10.9573611 C4.23710497,10.9573611 3.571608,10.2922795 3.571608,9.45850516 L3.571608,7.36887086 Z" id="Title" fill="#E4E4E4" mask="url(#mask-6)"></path>
                    </g>
                    <g id="Card-+-Title-4" transform="translate(4.762144, 37.959430)">
                        <mask id="mask-8" fill="white">
                            <use xlink:href="#path-7"></use>
                        </mask>
                        <use id="Mask" fill="#FFFFFF" xlink:href="#path-7"></use>
                        <g id="avatar" mask="url(#mask-8)">
                            <g transform="translate(54.831703, 17.668077)">
                                <rect id="Rectangle" fill="#FDB45D" x="0.253736" y="0.113582364" width="8.43365959" height="8.42793522" rx="1.39999998"></rect>
                                <path d="M4.48441108,1.74698806 C4.68813437,1.74698806 4.87936531,1.78828127 5.05810369,1.87086769 C5.23684207,1.95345411 5.39347853,2.06581001 5.52801266,2.20793538 C5.662547,2.35006076 5.76825263,2.51619394 5.84512917,2.70633473 C5.9220061,2.89647553 5.96044436,3.0991002 5.96044436,3.31420895 C5.96044436,3.5293177 5.9220061,3.73194238 5.84512917,3.92208317 C5.78470144,4.07154069 5.70646158,4.20616504 5.61040977,4.32595613 C5.74557916,4.37697337 5.86583359,4.44182757 5.97197592,4.51843386 C6.31792113,4.76811361 6.56969246,5.04276131 6.72728971,5.34237717 C6.88488716,5.64199303 6.97617825,5.91664073 7.00116316,6.16632048 C7.02614808,6.41600023 7.03864063,6.5408402 7.03864063,6.5408402 C7.05017199,6.6445534 7.02230429,6.73194134 6.95503712,6.80300403 C6.88776995,6.87406672 6.80224465,6.90959806 6.69846101,6.90959806 L2.27036114,6.90959806 C2.1665775,6.90959806 2.08201319,6.87406672 2.01666802,6.80300403 C1.95132265,6.73194134 1.92249394,6.6445534 1.93018152,6.5408402 C1.93018152,6.5408402 1.94267408,6.41600023 1.96765899,6.16632048 C1.9926439,5.91664073 2.08393499,5.64199303 2.24153244,5.34237717 C2.39912969,5.04276131 2.65090102,4.76811361 2.99684623,4.51843386 C3.10298857,4.44182757 3.22324299,4.37697337 3.35760951,4.32387128 L3.44080949,4.42048253 C3.30627515,4.27835715 3.20056952,4.11222397 3.12369298,3.92208317 C3.04681605,3.73194238 3.00837779,3.5293177 3.00837779,3.31420895 C3.00837779,3.0991002 3.04681605,2.89647553 3.12369298,2.70633473 C3.20056952,2.51619394 3.30627515,2.35006076 3.44080949,2.20793538 C3.57534362,2.06581001 3.73198008,1.95345411 3.91071846,1.87086769 C4.08945684,1.78828127 4.28068778,1.74698806 4.48441108,1.74698806 Z" id="Shape" fill="#FFAB4A"></path>
                            </g>
                        </g>
                        <rect id="Title" fill="#E4E4E4" mask="url(#mask-8)" x="3.571608" y="6.26134922" width="51.5898933" height="5.08734624" rx="1.4950054"></rect>
                        <rect id="Title-3" fill="#E4E4E4" mask="url(#mask-8)" x="3.571608" y="15.2620387" width="19.048576" height="5.08734624" rx="1.4950054"></rect>
                    </g>
                    <path d="M5.15898933,8.14912436 C5.15898933,7.32266292 5.83429333,6.65268354 6.65196201,6.65268354 L34.6199527,6.65268354 C35.4444987,6.65268354 36.1129253,7.32604889 36.1129253,8.14912436 L36.1129253,11.0262576 C36.1129253,11.8527191 35.4376213,12.5226984 34.6199527,12.5226984 L6.65196201,12.5226984 C5.82741597,12.5226984 5.15898933,11.8493331 5.15898933,11.0262576 L5.15898933,8.14912436 Z" id="Title-2" fill="#FFFFFF"></path>
                </g>
                <g id="Right-List" transform="translate(170.275076, 15.211091)">
                    <rect id="List" fill="#E3E3E3" x="0" y="0" width="77.38484" height="112.704286" rx="2.9900108"></rect>
                    <g id="Card-+-Title" transform="translate(4.762144, 18.001379)">
                        <mask id="mask-10" fill="white">
                            <use xlink:href="#path-9"></use>
                        </mask>
                        <use id="Card" fill="#FFFFFF" xlink:href="#path-9"></use>
                        <rect id="Rectangle-517" fill="#F1F1F1" mask="url(#mask-10)" x="0.0246517808" y="-1.52001074" width="74.0597498" height="36.2150299"></rect>
                        <path d="M3.571608,39.8496199 C3.571608,39.0218246 4.25002303,38.3507639 5.07314828,38.3507639 L18.3407264,38.3507639 C19.1700042,38.3507639 19.8422667,39.0158456 19.8422667,39.8496199 L19.8422667,41.9392542 C19.8422667,42.7670495 19.1638516,43.4381102 18.3407264,43.4381102 L5.07314828,43.4381102 C4.24387048,43.4381102 3.571608,42.7730285 3.571608,41.9392542 L3.571608,39.8496199 Z" id="Title" fill="#E4E4E4" mask="url(#mask-10)"></path>
                    </g>
                    <g id="Card-+-Title" transform="translate(4.365299, 70.440179)">
                        <g id="Bitmap">
                            <mask id="mask-12" fill="white">
                                <use xlink:href="#path-11"></use>
                            </mask>
                            <use id="Mask" fill="#FFFFFF" xlink:href="#path-11"></use>
                        </g>
                        <rect id="Title" fill="#E4E4E4" x="3.571608" y="5.08734624" width="25.7949467" height="5.08734624" rx="1.4950054"></rect>
                    </g>
                    <g id="Card-+-Title-5" transform="translate(4.365299, 90.398229)">
                        <g id="Bitmap">
                            <mask id="mask-14" fill="white">
                                <use xlink:href="#path-13"></use>
                            </mask>
                            <use id="Mask" fill="#FFFFFF" xlink:href="#path-13"></use>
                        </g>
                        <rect id="Title" fill="#E4E4E4" x="3.571608" y="5.08734624" width="17.85804" height="5.08734624" rx="1.4950054"></rect>
                    </g>
                    <path d="M5.15898933,8.14912436 C5.15898933,7.32266292 5.83238081,6.65268354 6.64721956,6.65268354 L23.9098711,6.65268354 C24.731798,6.65268354 25.3981013,7.32604889 25.3981013,8.14912436 L25.3981013,11.0262576 C25.3981013,11.8527191 24.7247099,12.5226984 23.9098711,12.5226984 L6.64721956,12.5226984 C5.8252927,12.5226984 5.15898933,11.8493331 5.15898933,11.0262576 L5.15898933,8.14912436 Z" id="Title-2" fill="#FFFFFF"></path>
                </g>
                <g id="Left-List" transform="translate(0.425273, 0.618804)">
                    <rect id="List" fill="#E3E3E3" x="0" y="14.5922865" width="77.38484" height="115.052292" rx="2.9900108"></rect>
                    <g id="Card-+-Title" transform="translate(4.762144, 32.202331)">
                        <rect id="Card" fill="#FFFFFF" x="0" y="0.391334326" width="68.2573973" height="16.4360417" rx="2.9900108"></rect>
                        <rect id="Title" fill="#E4E4E4" x="3.571608" y="5.87001489" width="34.525544" height="5.08734624" rx="1.4950054"></rect>
                    </g>
                    <g id="Card-+-Title-3" transform="translate(4.762144, 53.725719)">
                        <rect id="Card" fill="#FFFFFF" x="0" y="0.391334326" width="68.2573973" height="16.4360417" rx="2.9900108"></rect>
                        <g id="avatar" transform="translate(55.662270, 4.651023)" fill="#EF8172">
                            <rect id="Rectangle" x="0.253736" y="0.113582364" width="8.43365959" height="8.42793522" rx="1.39999998"></rect>
                        </g>
                        <g id="avatar-copy-2" transform="translate(45.120196, 4.651023)" fill="#74BB62">
                            <rect id="Rectangle" x="0.253736" y="0.113582364" width="8.43365959" height="8.42793522" rx="1.39999998"></rect>
                        </g>
                        <rect id="Title" fill="#E4E4E4" x="3.571608" y="5.87001489" width="26.191792" height="5.08734624" rx="1.4950054"></rect>
                    </g>
                    <g id="Card-+-Title" transform="translate(4.299077, 74.140177)">
                        <g id="Bitmap" transform="translate(0.066221, 0.000000)"></g>
                        <rect id="Title" fill="#E4E4E4" x="3.63782945" y="38.6770255" width="17.85804" height="5.08734624" rx="1.4950054"></rect>
                    </g>
                    <g id="Card-+-Title-Copy" transform="translate(4.666921, 75.233385)">
                        <mask id="mask-16" fill="white">
                            <use xlink:href="#path-15"></use>
                        </mask>
                        <use id="Card" fill="#FFFFFF" xlink:href="#path-15"></use>
                        <rect id="Rectangle-517" fill="#F1F1F1" mask="url(#mask-16)" x="0.0246517808" y="-1.52001074" width="74.0597498" height="36.2150299"></rect>
                        <rect id="Title" fill="#E4E4E4" mask="url(#mask-16)" x="3.571608" y="38.3507639" width="16.2706587" height="5.08734624" rx="1.4950054"></rect>
                    </g>
                    <rect id="Title-2" fill="#FFFFFF" x="5.15898933" y="21.24497" width="19.048576" height="5.87001489" rx="1.4950054"></rect>
                    <rect id="Title-2-Copy" fill="#FFFFFF" opacity="0.329999983" x="0.667130444" y="0.0114136403" width="19.048576" height="5.87001489" rx="1.4950054"></rect>
                </g>
            </g>
            <path d="M129.875104,49 C128.839512,49 128,49.8399579 128,50.8751036 L128,62.1248964 C128,63.1604875 128.839958,64 129.875104,64 L141.124896,64 C142.160487,64 143,63.1600422 143,62.1248964 L143,50.8751036 C143,49.8395125 142.160042,49 141.124896,49 L129.875104,49 L129.875104,49 Z M137.374778,50.95 C136.877844,50.95 136.475,51.3529244 136.475,51.8504161 L136.475,56.6495839 C136.475,57.14687 136.877992,57.55 137.374778,57.55 L140.150222,57.55 C140.647156,57.55 141.05,57.1470756 141.05,56.6495839 L141.05,51.8504161 C141.05,51.35313 140.647008,50.95 140.150222,50.95 L137.374778,50.95 L137.374778,50.95 Z M130.849778,50.95 C130.352844,50.95 129.95,51.3525557 129.95,51.8503889 L129.95,60.3996111 C129.95,60.8968821 130.352992,61.3 130.849778,61.3 L133.625222,61.3 C134.122156,61.3 134.525,60.8974443 134.525,60.3996111 L134.525,51.8503889 C134.525,51.3531178 134.122008,50.95 133.625222,50.95 L130.849778,50.95 L130.849778,50.95 Z" id="Board" fill="#FFFFFF"></path>
            <g id="green-star" transform="translate(74.000000, 214.000000)" fill="#8FDFEB">
                <path d="M17.5896374,8.14197527 C17.5896374,8.14197527 13.2452655,8.52430922 11.2007447,10.9121585 C8.73567969,13.7900905 9.03043613,17.5369632 9.03043613,17.5369632 C9.03043613,17.5369632 9.03419099,13.50334 6.85825014,11.0199072 C4.57154095,8.4130848 0,8.14197527 0,8.14197527 C0,8.14197527 4.10218357,8.30533614 6.50717082,6.07910982 C8.79575744,3.96063215 8.79575744,0 8.79575744,0 C8.79575744,0 8.73567969,4.06838081 11.0824666,6.07910982 C13.7671909,8.3748514 17.5896374,8.14197527 17.5896374,8.14197527" id="Fill-11-Copy-3"></path>
            </g>
            <g id="blue-stars" transform="translate(141.000000, 0.000000)" fill="#8FDFEB">
                <path d="M52.8475503,15.2367969 C52.8475503,15.2367969 45.047378,15.9522922 41.3765104,20.4208854 C36.9505699,25.8066134 37.4797951,32.818467 37.4797951,32.818467 C37.4797951,32.818467 37.4865368,25.2699919 33.5797089,20.6225249 C29.4740002,15.7441481 21.2659537,15.2367969 21.2659537,15.2367969 C21.2659537,15.2367969 28.631285,15.5425085 32.9493579,11.3763747 C37.0584374,7.41188051 37.0584374,3.73028047e-15 37.0584374,3.73028047e-15 C37.0584374,3.73028047e-15 36.9505699,7.61352009 41.1641461,11.3763747 C45.9844773,15.6725986 52.8475503,15.2367969 52.8475503,15.2367969" id="Fill-11-Copy-4"></path>
                <path d="M18.0760607,25.9053541 C18.0760607,25.9053541 13.6115496,26.3148754 11.5104897,28.8725219 C8.97725587,31.9551003 9.2801635,35.9684088 9.2801635,35.9684088 C9.2801635,35.9684088 9.28402219,31.6479593 7.04790795,28.9879324 C4.69796219,26.1957419 0,25.9053541 0,25.9053541 C0,25.9053541 4.21562521,26.0803314 6.68711989,23.6958006 C9.03899501,21.4266804 9.03899501,17.1844123 9.03899501,17.1844123 C9.03899501,17.1844123 8.97725587,21.542091 11.3889408,23.6958006 C14.1479083,26.1547898 18.0760607,25.9053541 18.0760607,25.9053541" id="Fill-11-Copy-5" fill-opacity="0.3"></path>
            </g>
            <g id="purple-star" transform="translate(189.000000, 211.000000)" fill="#8FDFEB" opacity="0.5">
                <path d="M17.5896374,8.14197527 C17.5896374,8.14197527 13.2452655,8.52430922 11.2007447,10.9121585 C8.73567969,13.7900905 9.03043613,17.5369632 9.03043613,17.5369632 C9.03043613,17.5369632 9.03419099,13.50334 6.85825014,11.0199072 C4.57154095,8.4130848 0,8.14197527 0,8.14197527 C0,8.14197527 4.10218357,8.30533614 6.50717082,6.07910982 C8.79575744,3.96063215 8.79575744,0 8.79575744,0 C8.79575744,0 8.73567969,4.06838081 11.0824666,6.07910982 C13.7671909,8.3748514 17.5896374,8.14197527 17.5896374,8.14197527" id="Fill-11-Copy-6"></path>
            </g>
            <g id="red-star" transform="translate(222.000000, 190.000000)" fill="#8FDFEB">
                <path d="M31.6337888,15.5837056 C31.6337888,15.5837056 23.8180114,16.3156474 20.1427351,20.8862171 C15.7110933,26.3957424 16.2378479,33.5702504 16.2378479,33.5702504 C16.2378479,33.5702504 16.2513544,25.8471558 12.3344613,21.0947096 C8.21797181,16.1041976 0,15.5837056 0,15.5837056 C0,15.5837056 7.37456418,15.8957051 11.6996545,11.6326988 C15.8161441,7.57818497 15.8161441,0 15.8161441,0 C15.8161441,0 15.7110933,7.78667747 19.9311329,11.6326988 C24.7589662,16.030264 31.6337888,15.5837056 31.6337888,15.5837056" id="Fill-9"></path>
                <path d="M47.362699,38.9740177 C47.362699,38.9740177 43.153832,39.3682885 41.1730817,41.8306891 C38.7849044,44.7984732 39.0704671,48.6623273 39.0704671,48.6623273 C39.0704671,48.6623273 39.0741049,44.50277 36.9660336,41.9418018 C34.750649,39.2535915 30.3216987,38.9740177 30.3216987,38.9740177 C30.3216987,38.9740177 34.2959313,39.1424788 36.6259048,36.8467473 C38.8431083,34.6621284 38.8431083,30.577841 38.8431083,30.577841 C38.8431083,30.577841 38.7849044,34.7732411 41.0584929,36.8467473 C43.6594781,39.2141644 47.362699,38.9740177 47.362699,38.9740177" id="Fill-11-Copy-2" opacity="0.5"></path>
            </g>
        </g>
    </g>
</svg>