<?xml version="1.0" encoding="UTF-8"?>
<svg width="93px" height="102px" viewBox="0 0 93 102" version="1.1" xmlns="http://www.w3.org/2000/svg" xmlns:xlink="http://www.w3.org/1999/xlink">
    <!-- Generator: Sketch 57.1 (83088) - https://sketch.com -->
    <title>green face</title>
    <desc>Created with Sketch.</desc>
    <defs>
        <linearGradient x1="50%" y1="0%" x2="50%" y2="100%" id="linearGradient-1">
            <stop stop-color="#9AE087" offset="0%"></stop>
            <stop stop-color="#61BD4F" offset="100%"></stop>
        </linearGradient>
    </defs>
    <g id="MVP-Phase-1" stroke="none" stroke-width="1" fill="none" fill-rule="evenodd">
        <g id="green-face">
            <path d="M8.65303821,19.8707188 C8.65264212,18.2102386 9.99896641,16.864477 11.6506203,16.8648737 L88.1842946,16.8832551 C89.8402096,16.8836528 91.1829133,18.222891 91.1833111,19.8905404 L91.2016984,96.974609 C91.2020945,98.6350891 89.8557702,99.9808508 88.2041163,99.9804541 L11.670442,99.9620727 C10.014527,99.961675 8.67182332,98.6224368 8.67142553,96.9547873 L8.65303821,19.8707188 Z" id="Rectangle" fill-opacity="0.2" fill="#125C82" opacity="0.222486413" transform="translate(49.927368, 58.422664) rotate(2.000000) translate(-49.927368, -58.422664) "></path>
            <path d="M3.82605211,6.5331516 C3.8270381,4.87274391 5.17454193,3.5259124 6.8262684,3.52492491 L83.3633041,3.47916711 C85.0192918,3.47817707 86.36094,4.81623185 86.3599498,6.48380857 L86.3141773,83.5645147 C86.3131914,85.2249223 84.9656875,86.5717539 83.3139611,86.5727413 L6.77692536,86.6184992 C5.12093765,86.6194892 3.77928941,85.2814344 3.78027966,83.6138577 L3.82605211,6.5331516 Z" id="Rectangle" fill="url(#linearGradient-1)" transform="translate(45.070115, 45.048833) rotate(-5.000000) translate(-45.070115, -45.048833) "></path>
            <g id="Group-12" transform="translate(52.988931, 50.829274) rotate(-2.000000) translate(-52.988931, -50.829274) translate(20.988931, 45.329274)" fill="#F8E71C" opacity="0.320595562">
                <path d="M12.1983073,6.96076147 C12.1018228,8.8234866 9.34677016,10.1920193 6.04532148,10.0177848 C2.7438728,9.84249439 0.146131894,8.19096259 0.243665162,6.32823747 C0.340149685,4.46656831 3.09520232,3.09803557 6.396651,3.27227006 C9.69809968,3.44650456 12.2958406,5.09803635 12.1983073,6.96076147" id="Fill-1"></path>
                <path d="M63.5868033,3.79286161 C63.4903188,5.65558673 60.7352661,7.02411947 57.4338175,6.84988498 C54.1323688,6.67459452 51.5346279,5.02306272 51.6321611,3.1603376 C51.7286457,1.29866845 54.4836983,-0.0698642971 57.785147,0.104370196 C61.0865957,0.278604688 63.6843366,1.93013649 63.5868033,3.79286161" id="Fill-1-Copy"></path>
            </g>
            <g id="face" transform="translate(54.635839, 46.769312) rotate(-5.000000) translate(-54.635839, -46.769312) translate(30.635839, 33.769312)" fill="#346019">
                <path d="M8.98107847,4.99773674 C8.98107847,7.49629002 6.97154808,9.51965832 4.49008252,9.51965832 C2.01013934,9.51965832 0.000608948602,7.49629002 0.000608948602,4.99773674 C0.000608948602,2.50071631 2.01013934,0.477348008 4.49008252,0.477348008 C6.97154808,0.477348008 8.98107847,2.50071631 8.98107847,4.99773674" id="Fill-1"></path>
                <g id="Group-5" transform="translate(37.585661, 0.334333)">
                    <path d="M9.14992638,4.66340408 C9.14992638,7.16195736 7.14039599,9.18532566 4.65893044,9.18532566 C2.17898725,9.18532566 0.169456864,7.16195736 0.169456864,4.66340408 C0.169456864,2.16638365 2.17898725,0.14301535 4.65893044,0.14301535 C7.14039599,0.14301535 9.14992638,2.16638365 9.14992638,4.66340408" id="Fill-3"></path>
                </g>
                <g id="Group-8" transform="translate(15.931672, 12.120283)">
                    <path d="M0.22936702,0.396566562 L15.6403338,0.396566562 C15.6403338,0.396566562 15.9904792,12.7406461 7.93408922,12.7406461 C-0.120778426,12.7406461 0.22936702,0.396566562 0.22936702,0.396566562" id="Fill-6"></path>
                </g>
            </g>
        </g>
    </g>
</svg>